<?xml version="1.0" encoding="UTF-8"?>
<!-- Created with Inkscape (http://www.inkscape.org/) -->
<svg width="24" height="24" version="1.1" viewBox="0 0 24 24" xmlns="http://www.w3.org/2000/svg">
 <g transform="matrix(1.786 0 0 1.786 -1.7 13.9)" stroke="#000" stroke-width="1.12">
  <path d="m7.026 0.05938-1.61-0.9297c-0.3716-0.2145-0.5094-0.774-0.3031-1.131l2.372-4.109c0.2062-0.3572 0.7597-0.5176 1.131-0.3031l3.221 1.859c0.3716 0.2145 0.5094 0.774 0.3031 1.131l-2.372 4.109c-0.2062 0.3572-0.7597 0.5176-1.131 0.3031l-1.61-0.9297"/>
  <path d="m5.116 3.368-1.61-0.9297c-0.3716-0.2145-0.5094-0.774-0.3031-1.131l4.283-7.418c0.2062-0.3572 0.7597-0.5176 1.131-0.3031l3.221 1.859c0.3716 0.2145 0.5094 0.774 0.3031 1.131l-4.283 7.418c-0.2062 0.3572-0.7597 0.5176-1.131 0.3031l-1.61-0.9297" fill="none" stroke="#000"/>
 </g>
</svg>
